<mxfile host="app.diagrams.net" modified="2023-09-19T14:56:59.989Z" agent="Mozilla/5.0 (Macintosh; Intel Mac OS X 10_15_7) AppleWebKit/537.36 (KHTML, like Gecko) Chrome/116.0.0.0 Safari/537.36" etag="amxWh83I0Hnq3bbyGImM" version="21.7.5" type="github">
  <diagram name="Страница — 1" id="ay35Ao7Ymbi4MsxwoKMW">
    <mxGraphModel dx="1460" dy="940" grid="1" gridSize="10" guides="1" tooltips="1" connect="1" arrows="1" fold="1" page="1" pageScale="1" pageWidth="827" pageHeight="1169" math="0" shadow="0">
      <root>
        <mxCell id="0" />
        <mxCell id="1" parent="0" />
        <mxCell id="MQInxoICCboDLCkZ3Esl-1" value="Customer" style="shape=table;startSize=30;container=1;collapsible=1;childLayout=tableLayout;fixedRows=1;rowLines=0;fontStyle=1;align=center;resizeLast=1;html=1;" vertex="1" parent="1">
          <mxGeometry x="600" y="200" width="159.9999999999999" height="150" as="geometry" />
        </mxCell>
        <mxCell id="MQInxoICCboDLCkZ3Esl-2" value="" style="shape=tableRow;horizontal=0;startSize=0;swimlaneHead=0;swimlaneBody=0;fillColor=none;collapsible=0;dropTarget=0;points=[[0,0.5],[1,0.5]];portConstraint=eastwest;top=0;left=0;right=0;bottom=1;" vertex="1" parent="MQInxoICCboDLCkZ3Esl-1">
          <mxGeometry y="30" width="159.9999999999999" height="30" as="geometry" />
        </mxCell>
        <mxCell id="MQInxoICCboDLCkZ3Esl-3" value="PK" style="shape=partialRectangle;connectable=0;fillColor=none;top=0;left=0;bottom=0;right=0;fontStyle=1;overflow=hidden;whiteSpace=wrap;html=1;" vertex="1" parent="MQInxoICCboDLCkZ3Esl-2">
          <mxGeometry width="30" height="30" as="geometry">
            <mxRectangle width="30" height="30" as="alternateBounds" />
          </mxGeometry>
        </mxCell>
        <mxCell id="MQInxoICCboDLCkZ3Esl-4" value="Customer_id" style="shape=partialRectangle;connectable=0;fillColor=none;top=0;left=0;bottom=0;right=0;align=left;spacingLeft=6;fontStyle=5;overflow=hidden;whiteSpace=wrap;html=1;" vertex="1" parent="MQInxoICCboDLCkZ3Esl-2">
          <mxGeometry x="30" width="129.9999999999999" height="30" as="geometry">
            <mxRectangle width="129.9999999999999" height="30" as="alternateBounds" />
          </mxGeometry>
        </mxCell>
        <mxCell id="MQInxoICCboDLCkZ3Esl-5" value="" style="shape=tableRow;horizontal=0;startSize=0;swimlaneHead=0;swimlaneBody=0;fillColor=none;collapsible=0;dropTarget=0;points=[[0,0.5],[1,0.5]];portConstraint=eastwest;top=0;left=0;right=0;bottom=0;" vertex="1" parent="MQInxoICCboDLCkZ3Esl-1">
          <mxGeometry y="60" width="159.9999999999999" height="30" as="geometry" />
        </mxCell>
        <mxCell id="MQInxoICCboDLCkZ3Esl-6" value="" style="shape=partialRectangle;connectable=0;fillColor=none;top=0;left=0;bottom=0;right=0;editable=1;overflow=hidden;whiteSpace=wrap;html=1;" vertex="1" parent="MQInxoICCboDLCkZ3Esl-5">
          <mxGeometry width="30" height="30" as="geometry">
            <mxRectangle width="30" height="30" as="alternateBounds" />
          </mxGeometry>
        </mxCell>
        <mxCell id="MQInxoICCboDLCkZ3Esl-7" value="first_name CHAR(50)" style="shape=partialRectangle;connectable=0;fillColor=none;top=0;left=0;bottom=0;right=0;align=left;spacingLeft=6;overflow=hidden;whiteSpace=wrap;html=1;" vertex="1" parent="MQInxoICCboDLCkZ3Esl-5">
          <mxGeometry x="30" width="129.9999999999999" height="30" as="geometry">
            <mxRectangle width="129.9999999999999" height="30" as="alternateBounds" />
          </mxGeometry>
        </mxCell>
        <mxCell id="MQInxoICCboDLCkZ3Esl-8" value="" style="shape=tableRow;horizontal=0;startSize=0;swimlaneHead=0;swimlaneBody=0;fillColor=none;collapsible=0;dropTarget=0;points=[[0,0.5],[1,0.5]];portConstraint=eastwest;top=0;left=0;right=0;bottom=0;" vertex="1" parent="MQInxoICCboDLCkZ3Esl-1">
          <mxGeometry y="90" width="159.9999999999999" height="30" as="geometry" />
        </mxCell>
        <mxCell id="MQInxoICCboDLCkZ3Esl-9" value="" style="shape=partialRectangle;connectable=0;fillColor=none;top=0;left=0;bottom=0;right=0;editable=1;overflow=hidden;whiteSpace=wrap;html=1;" vertex="1" parent="MQInxoICCboDLCkZ3Esl-8">
          <mxGeometry width="30" height="30" as="geometry">
            <mxRectangle width="30" height="30" as="alternateBounds" />
          </mxGeometry>
        </mxCell>
        <mxCell id="MQInxoICCboDLCkZ3Esl-10" value="last_name CHAR(50)" style="shape=partialRectangle;connectable=0;fillColor=none;top=0;left=0;bottom=0;right=0;align=left;spacingLeft=6;overflow=hidden;whiteSpace=wrap;html=1;" vertex="1" parent="MQInxoICCboDLCkZ3Esl-8">
          <mxGeometry x="30" width="129.9999999999999" height="30" as="geometry">
            <mxRectangle width="129.9999999999999" height="30" as="alternateBounds" />
          </mxGeometry>
        </mxCell>
        <mxCell id="MQInxoICCboDLCkZ3Esl-11" value="" style="shape=tableRow;horizontal=0;startSize=0;swimlaneHead=0;swimlaneBody=0;fillColor=none;collapsible=0;dropTarget=0;points=[[0,0.5],[1,0.5]];portConstraint=eastwest;top=0;left=0;right=0;bottom=0;" vertex="1" parent="MQInxoICCboDLCkZ3Esl-1">
          <mxGeometry y="120" width="159.9999999999999" height="30" as="geometry" />
        </mxCell>
        <mxCell id="MQInxoICCboDLCkZ3Esl-12" value="FK" style="shape=partialRectangle;connectable=0;fillColor=none;top=0;left=0;bottom=0;right=0;editable=1;overflow=hidden;whiteSpace=wrap;html=1;" vertex="1" parent="MQInxoICCboDLCkZ3Esl-11">
          <mxGeometry width="30" height="30" as="geometry">
            <mxRectangle width="30" height="30" as="alternateBounds" />
          </mxGeometry>
        </mxCell>
        <mxCell id="MQInxoICCboDLCkZ3Esl-13" value="" style="shape=partialRectangle;connectable=0;fillColor=none;top=0;left=0;bottom=0;right=0;align=left;spacingLeft=6;overflow=hidden;whiteSpace=wrap;html=1;" vertex="1" parent="MQInxoICCboDLCkZ3Esl-11">
          <mxGeometry x="30" width="129.9999999999999" height="30" as="geometry">
            <mxRectangle width="129.9999999999999" height="30" as="alternateBounds" />
          </mxGeometry>
        </mxCell>
        <mxCell id="MQInxoICCboDLCkZ3Esl-18" value="ServiceUsage" style="shape=table;startSize=30;container=1;collapsible=1;childLayout=tableLayout;fixedRows=1;rowLines=0;fontStyle=1;align=center;resizeLast=1;html=1;" vertex="1" parent="1">
          <mxGeometry x="1020" y="410" width="159.9999999999999" height="210" as="geometry" />
        </mxCell>
        <mxCell id="MQInxoICCboDLCkZ3Esl-19" value="" style="shape=tableRow;horizontal=0;startSize=0;swimlaneHead=0;swimlaneBody=0;fillColor=none;collapsible=0;dropTarget=0;points=[[0,0.5],[1,0.5]];portConstraint=eastwest;top=0;left=0;right=0;bottom=1;" vertex="1" parent="MQInxoICCboDLCkZ3Esl-18">
          <mxGeometry y="30" width="159.9999999999999" height="30" as="geometry" />
        </mxCell>
        <mxCell id="MQInxoICCboDLCkZ3Esl-20" value="PK" style="shape=partialRectangle;connectable=0;fillColor=none;top=0;left=0;bottom=0;right=0;fontStyle=1;overflow=hidden;whiteSpace=wrap;html=1;" vertex="1" parent="MQInxoICCboDLCkZ3Esl-19">
          <mxGeometry width="30" height="30" as="geometry">
            <mxRectangle width="30" height="30" as="alternateBounds" />
          </mxGeometry>
        </mxCell>
        <mxCell id="MQInxoICCboDLCkZ3Esl-21" value="Usage id" style="shape=partialRectangle;connectable=0;fillColor=none;top=0;left=0;bottom=0;right=0;align=left;spacingLeft=6;fontStyle=5;overflow=hidden;whiteSpace=wrap;html=1;" vertex="1" parent="MQInxoICCboDLCkZ3Esl-19">
          <mxGeometry x="30" width="129.9999999999999" height="30" as="geometry">
            <mxRectangle width="129.9999999999999" height="30" as="alternateBounds" />
          </mxGeometry>
        </mxCell>
        <mxCell id="MQInxoICCboDLCkZ3Esl-22" value="" style="shape=tableRow;horizontal=0;startSize=0;swimlaneHead=0;swimlaneBody=0;fillColor=none;collapsible=0;dropTarget=0;points=[[0,0.5],[1,0.5]];portConstraint=eastwest;top=0;left=0;right=0;bottom=0;" vertex="1" parent="MQInxoICCboDLCkZ3Esl-18">
          <mxGeometry y="60" width="159.9999999999999" height="30" as="geometry" />
        </mxCell>
        <mxCell id="MQInxoICCboDLCkZ3Esl-23" value="FK" style="shape=partialRectangle;connectable=0;fillColor=none;top=0;left=0;bottom=0;right=0;editable=1;overflow=hidden;whiteSpace=wrap;html=1;" vertex="1" parent="MQInxoICCboDLCkZ3Esl-22">
          <mxGeometry width="30" height="30" as="geometry">
            <mxRectangle width="30" height="30" as="alternateBounds" />
          </mxGeometry>
        </mxCell>
        <mxCell id="MQInxoICCboDLCkZ3Esl-24" value="account_id" style="shape=partialRectangle;connectable=0;fillColor=none;top=0;left=0;bottom=0;right=0;align=left;spacingLeft=6;overflow=hidden;whiteSpace=wrap;html=1;" vertex="1" parent="MQInxoICCboDLCkZ3Esl-22">
          <mxGeometry x="30" width="129.9999999999999" height="30" as="geometry">
            <mxRectangle width="129.9999999999999" height="30" as="alternateBounds" />
          </mxGeometry>
        </mxCell>
        <mxCell id="MQInxoICCboDLCkZ3Esl-25" value="" style="shape=tableRow;horizontal=0;startSize=0;swimlaneHead=0;swimlaneBody=0;fillColor=none;collapsible=0;dropTarget=0;points=[[0,0.5],[1,0.5]];portConstraint=eastwest;top=0;left=0;right=0;bottom=0;" vertex="1" parent="MQInxoICCboDLCkZ3Esl-18">
          <mxGeometry y="90" width="159.9999999999999" height="30" as="geometry" />
        </mxCell>
        <mxCell id="MQInxoICCboDLCkZ3Esl-26" value="FK" style="shape=partialRectangle;connectable=0;fillColor=none;top=0;left=0;bottom=0;right=0;editable=1;overflow=hidden;whiteSpace=wrap;html=1;" vertex="1" parent="MQInxoICCboDLCkZ3Esl-25">
          <mxGeometry width="30" height="30" as="geometry">
            <mxRectangle width="30" height="30" as="alternateBounds" />
          </mxGeometry>
        </mxCell>
        <mxCell id="MQInxoICCboDLCkZ3Esl-27" value="tariff_id" style="shape=partialRectangle;connectable=0;fillColor=none;top=0;left=0;bottom=0;right=0;align=left;spacingLeft=6;overflow=hidden;whiteSpace=wrap;html=1;" vertex="1" parent="MQInxoICCboDLCkZ3Esl-25">
          <mxGeometry x="30" width="129.9999999999999" height="30" as="geometry">
            <mxRectangle width="129.9999999999999" height="30" as="alternateBounds" />
          </mxGeometry>
        </mxCell>
        <mxCell id="MQInxoICCboDLCkZ3Esl-28" value="" style="shape=tableRow;horizontal=0;startSize=0;swimlaneHead=0;swimlaneBody=0;fillColor=none;collapsible=0;dropTarget=0;points=[[0,0.5],[1,0.5]];portConstraint=eastwest;top=0;left=0;right=0;bottom=0;" vertex="1" parent="MQInxoICCboDLCkZ3Esl-18">
          <mxGeometry y="120" width="159.9999999999999" height="30" as="geometry" />
        </mxCell>
        <mxCell id="MQInxoICCboDLCkZ3Esl-29" value="" style="shape=partialRectangle;connectable=0;fillColor=none;top=0;left=0;bottom=0;right=0;editable=1;overflow=hidden;whiteSpace=wrap;html=1;" vertex="1" parent="MQInxoICCboDLCkZ3Esl-28">
          <mxGeometry width="30" height="30" as="geometry">
            <mxRectangle width="30" height="30" as="alternateBounds" />
          </mxGeometry>
        </mxCell>
        <mxCell id="MQInxoICCboDLCkZ3Esl-30" value="data_usage" style="shape=partialRectangle;connectable=0;fillColor=none;top=0;left=0;bottom=0;right=0;align=left;spacingLeft=6;overflow=hidden;whiteSpace=wrap;html=1;" vertex="1" parent="MQInxoICCboDLCkZ3Esl-28">
          <mxGeometry x="30" width="129.9999999999999" height="30" as="geometry">
            <mxRectangle width="129.9999999999999" height="30" as="alternateBounds" />
          </mxGeometry>
        </mxCell>
        <mxCell id="MQInxoICCboDLCkZ3Esl-36" style="shape=tableRow;horizontal=0;startSize=0;swimlaneHead=0;swimlaneBody=0;fillColor=none;collapsible=0;dropTarget=0;points=[[0,0.5],[1,0.5]];portConstraint=eastwest;top=0;left=0;right=0;bottom=0;" vertex="1" parent="MQInxoICCboDLCkZ3Esl-18">
          <mxGeometry y="150" width="159.9999999999999" height="30" as="geometry" />
        </mxCell>
        <mxCell id="MQInxoICCboDLCkZ3Esl-37" style="shape=partialRectangle;connectable=0;fillColor=none;top=0;left=0;bottom=0;right=0;editable=1;overflow=hidden;whiteSpace=wrap;html=1;" vertex="1" parent="MQInxoICCboDLCkZ3Esl-36">
          <mxGeometry width="30" height="30" as="geometry">
            <mxRectangle width="30" height="30" as="alternateBounds" />
          </mxGeometry>
        </mxCell>
        <mxCell id="MQInxoICCboDLCkZ3Esl-38" value="usage_minute" style="shape=partialRectangle;connectable=0;fillColor=none;top=0;left=0;bottom=0;right=0;align=left;spacingLeft=6;overflow=hidden;whiteSpace=wrap;html=1;" vertex="1" parent="MQInxoICCboDLCkZ3Esl-36">
          <mxGeometry x="30" width="129.9999999999999" height="30" as="geometry">
            <mxRectangle width="129.9999999999999" height="30" as="alternateBounds" />
          </mxGeometry>
        </mxCell>
        <mxCell id="MQInxoICCboDLCkZ3Esl-39" style="shape=tableRow;horizontal=0;startSize=0;swimlaneHead=0;swimlaneBody=0;fillColor=none;collapsible=0;dropTarget=0;points=[[0,0.5],[1,0.5]];portConstraint=eastwest;top=0;left=0;right=0;bottom=0;" vertex="1" parent="MQInxoICCboDLCkZ3Esl-18">
          <mxGeometry y="180" width="159.9999999999999" height="30" as="geometry" />
        </mxCell>
        <mxCell id="MQInxoICCboDLCkZ3Esl-40" style="shape=partialRectangle;connectable=0;fillColor=none;top=0;left=0;bottom=0;right=0;editable=1;overflow=hidden;whiteSpace=wrap;html=1;" vertex="1" parent="MQInxoICCboDLCkZ3Esl-39">
          <mxGeometry width="30" height="30" as="geometry">
            <mxRectangle width="30" height="30" as="alternateBounds" />
          </mxGeometry>
        </mxCell>
        <mxCell id="MQInxoICCboDLCkZ3Esl-41" value="usage_mb" style="shape=partialRectangle;connectable=0;fillColor=none;top=0;left=0;bottom=0;right=0;align=left;spacingLeft=6;overflow=hidden;whiteSpace=wrap;html=1;" vertex="1" parent="MQInxoICCboDLCkZ3Esl-39">
          <mxGeometry x="30" width="129.9999999999999" height="30" as="geometry">
            <mxRectangle width="129.9999999999999" height="30" as="alternateBounds" />
          </mxGeometry>
        </mxCell>
        <mxCell id="MQInxoICCboDLCkZ3Esl-42" value="Tariff" style="shape=table;startSize=30;container=1;collapsible=1;childLayout=tableLayout;fixedRows=1;rowLines=0;fontStyle=1;align=center;resizeLast=1;html=1;" vertex="1" parent="1">
          <mxGeometry x="800" y="410" width="159.9999999999999" height="240" as="geometry" />
        </mxCell>
        <mxCell id="MQInxoICCboDLCkZ3Esl-43" value="" style="shape=tableRow;horizontal=0;startSize=0;swimlaneHead=0;swimlaneBody=0;fillColor=none;collapsible=0;dropTarget=0;points=[[0,0.5],[1,0.5]];portConstraint=eastwest;top=0;left=0;right=0;bottom=1;" vertex="1" parent="MQInxoICCboDLCkZ3Esl-42">
          <mxGeometry y="30" width="159.9999999999999" height="30" as="geometry" />
        </mxCell>
        <mxCell id="MQInxoICCboDLCkZ3Esl-44" value="PK" style="shape=partialRectangle;connectable=0;fillColor=none;top=0;left=0;bottom=0;right=0;fontStyle=1;overflow=hidden;whiteSpace=wrap;html=1;" vertex="1" parent="MQInxoICCboDLCkZ3Esl-43">
          <mxGeometry width="30" height="30" as="geometry">
            <mxRectangle width="30" height="30" as="alternateBounds" />
          </mxGeometry>
        </mxCell>
        <mxCell id="MQInxoICCboDLCkZ3Esl-45" value="Tariff_id" style="shape=partialRectangle;connectable=0;fillColor=none;top=0;left=0;bottom=0;right=0;align=left;spacingLeft=6;fontStyle=5;overflow=hidden;whiteSpace=wrap;html=1;" vertex="1" parent="MQInxoICCboDLCkZ3Esl-43">
          <mxGeometry x="30" width="129.9999999999999" height="30" as="geometry">
            <mxRectangle width="129.9999999999999" height="30" as="alternateBounds" />
          </mxGeometry>
        </mxCell>
        <mxCell id="MQInxoICCboDLCkZ3Esl-46" value="" style="shape=tableRow;horizontal=0;startSize=0;swimlaneHead=0;swimlaneBody=0;fillColor=none;collapsible=0;dropTarget=0;points=[[0,0.5],[1,0.5]];portConstraint=eastwest;top=0;left=0;right=0;bottom=0;" vertex="1" parent="MQInxoICCboDLCkZ3Esl-42">
          <mxGeometry y="60" width="159.9999999999999" height="30" as="geometry" />
        </mxCell>
        <mxCell id="MQInxoICCboDLCkZ3Esl-47" value="" style="shape=partialRectangle;connectable=0;fillColor=none;top=0;left=0;bottom=0;right=0;editable=1;overflow=hidden;whiteSpace=wrap;html=1;" vertex="1" parent="MQInxoICCboDLCkZ3Esl-46">
          <mxGeometry width="30" height="30" as="geometry">
            <mxRectangle width="30" height="30" as="alternateBounds" />
          </mxGeometry>
        </mxCell>
        <mxCell id="MQInxoICCboDLCkZ3Esl-48" value="name&amp;nbsp;CHAR(50)" style="shape=partialRectangle;connectable=0;fillColor=none;top=0;left=0;bottom=0;right=0;align=left;spacingLeft=6;overflow=hidden;whiteSpace=wrap;html=1;" vertex="1" parent="MQInxoICCboDLCkZ3Esl-46">
          <mxGeometry x="30" width="129.9999999999999" height="30" as="geometry">
            <mxRectangle width="129.9999999999999" height="30" as="alternateBounds" />
          </mxGeometry>
        </mxCell>
        <mxCell id="MQInxoICCboDLCkZ3Esl-49" value="" style="shape=tableRow;horizontal=0;startSize=0;swimlaneHead=0;swimlaneBody=0;fillColor=none;collapsible=0;dropTarget=0;points=[[0,0.5],[1,0.5]];portConstraint=eastwest;top=0;left=0;right=0;bottom=0;" vertex="1" parent="MQInxoICCboDLCkZ3Esl-42">
          <mxGeometry y="90" width="159.9999999999999" height="30" as="geometry" />
        </mxCell>
        <mxCell id="MQInxoICCboDLCkZ3Esl-50" value="" style="shape=partialRectangle;connectable=0;fillColor=none;top=0;left=0;bottom=0;right=0;editable=1;overflow=hidden;whiteSpace=wrap;html=1;" vertex="1" parent="MQInxoICCboDLCkZ3Esl-49">
          <mxGeometry width="30" height="30" as="geometry">
            <mxRectangle width="30" height="30" as="alternateBounds" />
          </mxGeometry>
        </mxCell>
        <mxCell id="MQInxoICCboDLCkZ3Esl-51" value="price" style="shape=partialRectangle;connectable=0;fillColor=none;top=0;left=0;bottom=0;right=0;align=left;spacingLeft=6;overflow=hidden;whiteSpace=wrap;html=1;" vertex="1" parent="MQInxoICCboDLCkZ3Esl-49">
          <mxGeometry x="30" width="129.9999999999999" height="30" as="geometry">
            <mxRectangle width="129.9999999999999" height="30" as="alternateBounds" />
          </mxGeometry>
        </mxCell>
        <mxCell id="MQInxoICCboDLCkZ3Esl-52" value="" style="shape=tableRow;horizontal=0;startSize=0;swimlaneHead=0;swimlaneBody=0;fillColor=none;collapsible=0;dropTarget=0;points=[[0,0.5],[1,0.5]];portConstraint=eastwest;top=0;left=0;right=0;bottom=0;" vertex="1" parent="MQInxoICCboDLCkZ3Esl-42">
          <mxGeometry y="120" width="159.9999999999999" height="30" as="geometry" />
        </mxCell>
        <mxCell id="MQInxoICCboDLCkZ3Esl-53" value="" style="shape=partialRectangle;connectable=0;fillColor=none;top=0;left=0;bottom=0;right=0;editable=1;overflow=hidden;whiteSpace=wrap;html=1;" vertex="1" parent="MQInxoICCboDLCkZ3Esl-52">
          <mxGeometry width="30" height="30" as="geometry">
            <mxRectangle width="30" height="30" as="alternateBounds" />
          </mxGeometry>
        </mxCell>
        <mxCell id="MQInxoICCboDLCkZ3Esl-54" value="description" style="shape=partialRectangle;connectable=0;fillColor=none;top=0;left=0;bottom=0;right=0;align=left;spacingLeft=6;overflow=hidden;whiteSpace=wrap;html=1;" vertex="1" parent="MQInxoICCboDLCkZ3Esl-52">
          <mxGeometry x="30" width="129.9999999999999" height="30" as="geometry">
            <mxRectangle width="129.9999999999999" height="30" as="alternateBounds" />
          </mxGeometry>
        </mxCell>
        <mxCell id="MQInxoICCboDLCkZ3Esl-69" style="shape=tableRow;horizontal=0;startSize=0;swimlaneHead=0;swimlaneBody=0;fillColor=none;collapsible=0;dropTarget=0;points=[[0,0.5],[1,0.5]];portConstraint=eastwest;top=0;left=0;right=0;bottom=0;" vertex="1" parent="MQInxoICCboDLCkZ3Esl-42">
          <mxGeometry y="150" width="159.9999999999999" height="30" as="geometry" />
        </mxCell>
        <mxCell id="MQInxoICCboDLCkZ3Esl-70" style="shape=partialRectangle;connectable=0;fillColor=none;top=0;left=0;bottom=0;right=0;editable=1;overflow=hidden;whiteSpace=wrap;html=1;" vertex="1" parent="MQInxoICCboDLCkZ3Esl-69">
          <mxGeometry width="30" height="30" as="geometry">
            <mxRectangle width="30" height="30" as="alternateBounds" />
          </mxGeometry>
        </mxCell>
        <mxCell id="MQInxoICCboDLCkZ3Esl-71" value="amount_mb" style="shape=partialRectangle;connectable=0;fillColor=none;top=0;left=0;bottom=0;right=0;align=left;spacingLeft=6;overflow=hidden;whiteSpace=wrap;html=1;" vertex="1" parent="MQInxoICCboDLCkZ3Esl-69">
          <mxGeometry x="30" width="129.9999999999999" height="30" as="geometry">
            <mxRectangle width="129.9999999999999" height="30" as="alternateBounds" />
          </mxGeometry>
        </mxCell>
        <mxCell id="MQInxoICCboDLCkZ3Esl-72" style="shape=tableRow;horizontal=0;startSize=0;swimlaneHead=0;swimlaneBody=0;fillColor=none;collapsible=0;dropTarget=0;points=[[0,0.5],[1,0.5]];portConstraint=eastwest;top=0;left=0;right=0;bottom=0;" vertex="1" parent="MQInxoICCboDLCkZ3Esl-42">
          <mxGeometry y="180" width="159.9999999999999" height="30" as="geometry" />
        </mxCell>
        <mxCell id="MQInxoICCboDLCkZ3Esl-73" style="shape=partialRectangle;connectable=0;fillColor=none;top=0;left=0;bottom=0;right=0;editable=1;overflow=hidden;whiteSpace=wrap;html=1;" vertex="1" parent="MQInxoICCboDLCkZ3Esl-72">
          <mxGeometry width="30" height="30" as="geometry">
            <mxRectangle width="30" height="30" as="alternateBounds" />
          </mxGeometry>
        </mxCell>
        <mxCell id="MQInxoICCboDLCkZ3Esl-74" value="amount_minute" style="shape=partialRectangle;connectable=0;fillColor=none;top=0;left=0;bottom=0;right=0;align=left;spacingLeft=6;overflow=hidden;whiteSpace=wrap;html=1;" vertex="1" parent="MQInxoICCboDLCkZ3Esl-72">
          <mxGeometry x="30" width="129.9999999999999" height="30" as="geometry">
            <mxRectangle width="129.9999999999999" height="30" as="alternateBounds" />
          </mxGeometry>
        </mxCell>
        <mxCell id="MQInxoICCboDLCkZ3Esl-75" style="shape=tableRow;horizontal=0;startSize=0;swimlaneHead=0;swimlaneBody=0;fillColor=none;collapsible=0;dropTarget=0;points=[[0,0.5],[1,0.5]];portConstraint=eastwest;top=0;left=0;right=0;bottom=0;" vertex="1" parent="MQInxoICCboDLCkZ3Esl-42">
          <mxGeometry y="210" width="159.9999999999999" height="30" as="geometry" />
        </mxCell>
        <mxCell id="MQInxoICCboDLCkZ3Esl-76" style="shape=partialRectangle;connectable=0;fillColor=none;top=0;left=0;bottom=0;right=0;editable=1;overflow=hidden;whiteSpace=wrap;html=1;" vertex="1" parent="MQInxoICCboDLCkZ3Esl-75">
          <mxGeometry width="30" height="30" as="geometry">
            <mxRectangle width="30" height="30" as="alternateBounds" />
          </mxGeometry>
        </mxCell>
        <mxCell id="MQInxoICCboDLCkZ3Esl-77" value="validity_period" style="shape=partialRectangle;connectable=0;fillColor=none;top=0;left=0;bottom=0;right=0;align=left;spacingLeft=6;overflow=hidden;whiteSpace=wrap;html=1;" vertex="1" parent="MQInxoICCboDLCkZ3Esl-75">
          <mxGeometry x="30" width="129.9999999999999" height="30" as="geometry">
            <mxRectangle width="129.9999999999999" height="30" as="alternateBounds" />
          </mxGeometry>
        </mxCell>
        <mxCell id="MQInxoICCboDLCkZ3Esl-55" value="Account" style="shape=table;startSize=30;container=1;collapsible=1;childLayout=tableLayout;fixedRows=1;rowLines=0;fontStyle=1;align=center;resizeLast=1;html=1;" vertex="1" parent="1">
          <mxGeometry x="799.9999999999998" y="190" width="159.9999999999999" height="210" as="geometry" />
        </mxCell>
        <mxCell id="MQInxoICCboDLCkZ3Esl-56" value="" style="shape=tableRow;horizontal=0;startSize=0;swimlaneHead=0;swimlaneBody=0;fillColor=none;collapsible=0;dropTarget=0;points=[[0,0.5],[1,0.5]];portConstraint=eastwest;top=0;left=0;right=0;bottom=1;" vertex="1" parent="MQInxoICCboDLCkZ3Esl-55">
          <mxGeometry y="30" width="159.9999999999999" height="30" as="geometry" />
        </mxCell>
        <mxCell id="MQInxoICCboDLCkZ3Esl-57" value="PK" style="shape=partialRectangle;connectable=0;fillColor=none;top=0;left=0;bottom=0;right=0;fontStyle=1;overflow=hidden;whiteSpace=wrap;html=1;" vertex="1" parent="MQInxoICCboDLCkZ3Esl-56">
          <mxGeometry width="30" height="30" as="geometry">
            <mxRectangle width="30" height="30" as="alternateBounds" />
          </mxGeometry>
        </mxCell>
        <mxCell id="MQInxoICCboDLCkZ3Esl-58" value="account_id" style="shape=partialRectangle;connectable=0;fillColor=none;top=0;left=0;bottom=0;right=0;align=left;spacingLeft=6;fontStyle=5;overflow=hidden;whiteSpace=wrap;html=1;" vertex="1" parent="MQInxoICCboDLCkZ3Esl-56">
          <mxGeometry x="30" width="129.9999999999999" height="30" as="geometry">
            <mxRectangle width="129.9999999999999" height="30" as="alternateBounds" />
          </mxGeometry>
        </mxCell>
        <mxCell id="MQInxoICCboDLCkZ3Esl-59" value="" style="shape=tableRow;horizontal=0;startSize=0;swimlaneHead=0;swimlaneBody=0;fillColor=none;collapsible=0;dropTarget=0;points=[[0,0.5],[1,0.5]];portConstraint=eastwest;top=0;left=0;right=0;bottom=0;" vertex="1" parent="MQInxoICCboDLCkZ3Esl-55">
          <mxGeometry y="60" width="159.9999999999999" height="30" as="geometry" />
        </mxCell>
        <mxCell id="MQInxoICCboDLCkZ3Esl-60" value="FK" style="shape=partialRectangle;connectable=0;fillColor=none;top=0;left=0;bottom=0;right=0;editable=1;overflow=hidden;whiteSpace=wrap;html=1;" vertex="1" parent="MQInxoICCboDLCkZ3Esl-59">
          <mxGeometry width="30" height="30" as="geometry">
            <mxRectangle width="30" height="30" as="alternateBounds" />
          </mxGeometry>
        </mxCell>
        <mxCell id="MQInxoICCboDLCkZ3Esl-61" value="customer_id" style="shape=partialRectangle;connectable=0;fillColor=none;top=0;left=0;bottom=0;right=0;align=left;spacingLeft=6;overflow=hidden;whiteSpace=wrap;html=1;" vertex="1" parent="MQInxoICCboDLCkZ3Esl-59">
          <mxGeometry x="30" width="129.9999999999999" height="30" as="geometry">
            <mxRectangle width="129.9999999999999" height="30" as="alternateBounds" />
          </mxGeometry>
        </mxCell>
        <mxCell id="MQInxoICCboDLCkZ3Esl-62" value="" style="shape=tableRow;horizontal=0;startSize=0;swimlaneHead=0;swimlaneBody=0;fillColor=none;collapsible=0;dropTarget=0;points=[[0,0.5],[1,0.5]];portConstraint=eastwest;top=0;left=0;right=0;bottom=0;" vertex="1" parent="MQInxoICCboDLCkZ3Esl-55">
          <mxGeometry y="90" width="159.9999999999999" height="30" as="geometry" />
        </mxCell>
        <mxCell id="MQInxoICCboDLCkZ3Esl-63" value="" style="shape=partialRectangle;connectable=0;fillColor=none;top=0;left=0;bottom=0;right=0;editable=1;overflow=hidden;whiteSpace=wrap;html=1;" vertex="1" parent="MQInxoICCboDLCkZ3Esl-62">
          <mxGeometry width="30" height="30" as="geometry">
            <mxRectangle width="30" height="30" as="alternateBounds" />
          </mxGeometry>
        </mxCell>
        <mxCell id="MQInxoICCboDLCkZ3Esl-64" value="created_at&amp;nbsp;" style="shape=partialRectangle;connectable=0;fillColor=none;top=0;left=0;bottom=0;right=0;align=left;spacingLeft=6;overflow=hidden;whiteSpace=wrap;html=1;" vertex="1" parent="MQInxoICCboDLCkZ3Esl-62">
          <mxGeometry x="30" width="129.9999999999999" height="30" as="geometry">
            <mxRectangle width="129.9999999999999" height="30" as="alternateBounds" />
          </mxGeometry>
        </mxCell>
        <mxCell id="MQInxoICCboDLCkZ3Esl-65" value="" style="shape=tableRow;horizontal=0;startSize=0;swimlaneHead=0;swimlaneBody=0;fillColor=none;collapsible=0;dropTarget=0;points=[[0,0.5],[1,0.5]];portConstraint=eastwest;top=0;left=0;right=0;bottom=0;" vertex="1" parent="MQInxoICCboDLCkZ3Esl-55">
          <mxGeometry y="120" width="159.9999999999999" height="30" as="geometry" />
        </mxCell>
        <mxCell id="MQInxoICCboDLCkZ3Esl-66" value="" style="shape=partialRectangle;connectable=0;fillColor=none;top=0;left=0;bottom=0;right=0;editable=1;overflow=hidden;whiteSpace=wrap;html=1;" vertex="1" parent="MQInxoICCboDLCkZ3Esl-65">
          <mxGeometry width="30" height="30" as="geometry">
            <mxRectangle width="30" height="30" as="alternateBounds" />
          </mxGeometry>
        </mxCell>
        <mxCell id="MQInxoICCboDLCkZ3Esl-67" value="balance" style="shape=partialRectangle;connectable=0;fillColor=none;top=0;left=0;bottom=0;right=0;align=left;spacingLeft=6;overflow=hidden;whiteSpace=wrap;html=1;" vertex="1" parent="MQInxoICCboDLCkZ3Esl-65">
          <mxGeometry x="30" width="129.9999999999999" height="30" as="geometry">
            <mxRectangle width="129.9999999999999" height="30" as="alternateBounds" />
          </mxGeometry>
        </mxCell>
        <mxCell id="MQInxoICCboDLCkZ3Esl-160" style="shape=tableRow;horizontal=0;startSize=0;swimlaneHead=0;swimlaneBody=0;fillColor=none;collapsible=0;dropTarget=0;points=[[0,0.5],[1,0.5]];portConstraint=eastwest;top=0;left=0;right=0;bottom=0;" vertex="1" parent="MQInxoICCboDLCkZ3Esl-55">
          <mxGeometry y="150" width="159.9999999999999" height="30" as="geometry" />
        </mxCell>
        <mxCell id="MQInxoICCboDLCkZ3Esl-161" value="FK" style="shape=partialRectangle;connectable=0;fillColor=none;top=0;left=0;bottom=0;right=0;editable=1;overflow=hidden;whiteSpace=wrap;html=1;" vertex="1" parent="MQInxoICCboDLCkZ3Esl-160">
          <mxGeometry width="30" height="30" as="geometry">
            <mxRectangle width="30" height="30" as="alternateBounds" />
          </mxGeometry>
        </mxCell>
        <mxCell id="MQInxoICCboDLCkZ3Esl-162" value="sim_id" style="shape=partialRectangle;connectable=0;fillColor=none;top=0;left=0;bottom=0;right=0;align=left;spacingLeft=6;overflow=hidden;whiteSpace=wrap;html=1;" vertex="1" parent="MQInxoICCboDLCkZ3Esl-160">
          <mxGeometry x="30" width="129.9999999999999" height="30" as="geometry">
            <mxRectangle width="129.9999999999999" height="30" as="alternateBounds" />
          </mxGeometry>
        </mxCell>
        <mxCell id="MQInxoICCboDLCkZ3Esl-166" style="shape=tableRow;horizontal=0;startSize=0;swimlaneHead=0;swimlaneBody=0;fillColor=none;collapsible=0;dropTarget=0;points=[[0,0.5],[1,0.5]];portConstraint=eastwest;top=0;left=0;right=0;bottom=0;" vertex="1" parent="MQInxoICCboDLCkZ3Esl-55">
          <mxGeometry y="180" width="159.9999999999999" height="30" as="geometry" />
        </mxCell>
        <mxCell id="MQInxoICCboDLCkZ3Esl-167" value="FK" style="shape=partialRectangle;connectable=0;fillColor=none;top=0;left=0;bottom=0;right=0;editable=1;overflow=hidden;whiteSpace=wrap;html=1;" vertex="1" parent="MQInxoICCboDLCkZ3Esl-166">
          <mxGeometry width="30" height="30" as="geometry">
            <mxRectangle width="30" height="30" as="alternateBounds" />
          </mxGeometry>
        </mxCell>
        <mxCell id="MQInxoICCboDLCkZ3Esl-168" value="tariff_id" style="shape=partialRectangle;connectable=0;fillColor=none;top=0;left=0;bottom=0;right=0;align=left;spacingLeft=6;overflow=hidden;whiteSpace=wrap;html=1;" vertex="1" parent="MQInxoICCboDLCkZ3Esl-166">
          <mxGeometry x="30" width="129.9999999999999" height="30" as="geometry">
            <mxRectangle width="129.9999999999999" height="30" as="alternateBounds" />
          </mxGeometry>
        </mxCell>
        <mxCell id="MQInxoICCboDLCkZ3Esl-80" style="edgeStyle=orthogonalEdgeStyle;rounded=1;orthogonalLoop=1;jettySize=auto;html=1;startArrow=ERone;startFill=0;endArrow=ERone;endFill=0;" edge="1" parent="1" source="MQInxoICCboDLCkZ3Esl-59" target="MQInxoICCboDLCkZ3Esl-2">
          <mxGeometry relative="1" as="geometry" />
        </mxCell>
        <mxCell id="MQInxoICCboDLCkZ3Esl-82" style="edgeStyle=orthogonalEdgeStyle;rounded=1;orthogonalLoop=1;jettySize=auto;html=1;endArrow=ERmany;endFill=0;startArrow=ERone;startFill=0;entryX=1;entryY=0.5;entryDx=0;entryDy=0;jumpStyle=arc;" edge="1" parent="1">
          <mxGeometry relative="1" as="geometry">
            <mxPoint x="1020" y="485" as="sourcePoint" />
            <mxPoint x="959.9999999999995" y="240" as="targetPoint" />
            <Array as="points">
              <mxPoint x="1000" y="485" />
              <mxPoint x="1000" y="240" />
            </Array>
          </mxGeometry>
        </mxCell>
        <mxCell id="MQInxoICCboDLCkZ3Esl-83" value="Service" style="shape=table;startSize=30;container=1;collapsible=1;childLayout=tableLayout;fixedRows=1;rowLines=0;fontStyle=1;align=center;resizeLast=1;html=1;" vertex="1" parent="1">
          <mxGeometry x="1279.9999999999995" y="750" width="159.9999999999999" height="150" as="geometry" />
        </mxCell>
        <mxCell id="MQInxoICCboDLCkZ3Esl-84" value="" style="shape=tableRow;horizontal=0;startSize=0;swimlaneHead=0;swimlaneBody=0;fillColor=none;collapsible=0;dropTarget=0;points=[[0,0.5],[1,0.5]];portConstraint=eastwest;top=0;left=0;right=0;bottom=1;" vertex="1" parent="MQInxoICCboDLCkZ3Esl-83">
          <mxGeometry y="30" width="159.9999999999999" height="30" as="geometry" />
        </mxCell>
        <mxCell id="MQInxoICCboDLCkZ3Esl-85" value="PK" style="shape=partialRectangle;connectable=0;fillColor=none;top=0;left=0;bottom=0;right=0;fontStyle=1;overflow=hidden;whiteSpace=wrap;html=1;" vertex="1" parent="MQInxoICCboDLCkZ3Esl-84">
          <mxGeometry width="30" height="30" as="geometry">
            <mxRectangle width="30" height="30" as="alternateBounds" />
          </mxGeometry>
        </mxCell>
        <mxCell id="MQInxoICCboDLCkZ3Esl-86" value="Service_id" style="shape=partialRectangle;connectable=0;fillColor=none;top=0;left=0;bottom=0;right=0;align=left;spacingLeft=6;fontStyle=5;overflow=hidden;whiteSpace=wrap;html=1;" vertex="1" parent="MQInxoICCboDLCkZ3Esl-84">
          <mxGeometry x="30" width="129.9999999999999" height="30" as="geometry">
            <mxRectangle width="129.9999999999999" height="30" as="alternateBounds" />
          </mxGeometry>
        </mxCell>
        <mxCell id="MQInxoICCboDLCkZ3Esl-87" value="" style="shape=tableRow;horizontal=0;startSize=0;swimlaneHead=0;swimlaneBody=0;fillColor=none;collapsible=0;dropTarget=0;points=[[0,0.5],[1,0.5]];portConstraint=eastwest;top=0;left=0;right=0;bottom=0;" vertex="1" parent="MQInxoICCboDLCkZ3Esl-83">
          <mxGeometry y="60" width="159.9999999999999" height="30" as="geometry" />
        </mxCell>
        <mxCell id="MQInxoICCboDLCkZ3Esl-88" value="" style="shape=partialRectangle;connectable=0;fillColor=none;top=0;left=0;bottom=0;right=0;editable=1;overflow=hidden;whiteSpace=wrap;html=1;" vertex="1" parent="MQInxoICCboDLCkZ3Esl-87">
          <mxGeometry width="30" height="30" as="geometry">
            <mxRectangle width="30" height="30" as="alternateBounds" />
          </mxGeometry>
        </mxCell>
        <mxCell id="MQInxoICCboDLCkZ3Esl-89" value="service_name" style="shape=partialRectangle;connectable=0;fillColor=none;top=0;left=0;bottom=0;right=0;align=left;spacingLeft=6;overflow=hidden;whiteSpace=wrap;html=1;" vertex="1" parent="MQInxoICCboDLCkZ3Esl-87">
          <mxGeometry x="30" width="129.9999999999999" height="30" as="geometry">
            <mxRectangle width="129.9999999999999" height="30" as="alternateBounds" />
          </mxGeometry>
        </mxCell>
        <mxCell id="MQInxoICCboDLCkZ3Esl-90" value="" style="shape=tableRow;horizontal=0;startSize=0;swimlaneHead=0;swimlaneBody=0;fillColor=none;collapsible=0;dropTarget=0;points=[[0,0.5],[1,0.5]];portConstraint=eastwest;top=0;left=0;right=0;bottom=0;" vertex="1" parent="MQInxoICCboDLCkZ3Esl-83">
          <mxGeometry y="90" width="159.9999999999999" height="30" as="geometry" />
        </mxCell>
        <mxCell id="MQInxoICCboDLCkZ3Esl-91" value="" style="shape=partialRectangle;connectable=0;fillColor=none;top=0;left=0;bottom=0;right=0;editable=1;overflow=hidden;whiteSpace=wrap;html=1;" vertex="1" parent="MQInxoICCboDLCkZ3Esl-90">
          <mxGeometry width="30" height="30" as="geometry">
            <mxRectangle width="30" height="30" as="alternateBounds" />
          </mxGeometry>
        </mxCell>
        <mxCell id="MQInxoICCboDLCkZ3Esl-92" value="description" style="shape=partialRectangle;connectable=0;fillColor=none;top=0;left=0;bottom=0;right=0;align=left;spacingLeft=6;overflow=hidden;whiteSpace=wrap;html=1;" vertex="1" parent="MQInxoICCboDLCkZ3Esl-90">
          <mxGeometry x="30" width="129.9999999999999" height="30" as="geometry">
            <mxRectangle width="129.9999999999999" height="30" as="alternateBounds" />
          </mxGeometry>
        </mxCell>
        <mxCell id="MQInxoICCboDLCkZ3Esl-93" value="" style="shape=tableRow;horizontal=0;startSize=0;swimlaneHead=0;swimlaneBody=0;fillColor=none;collapsible=0;dropTarget=0;points=[[0,0.5],[1,0.5]];portConstraint=eastwest;top=0;left=0;right=0;bottom=0;" vertex="1" parent="MQInxoICCboDLCkZ3Esl-83">
          <mxGeometry y="120" width="159.9999999999999" height="30" as="geometry" />
        </mxCell>
        <mxCell id="MQInxoICCboDLCkZ3Esl-94" value="" style="shape=partialRectangle;connectable=0;fillColor=none;top=0;left=0;bottom=0;right=0;editable=1;overflow=hidden;whiteSpace=wrap;html=1;" vertex="1" parent="MQInxoICCboDLCkZ3Esl-93">
          <mxGeometry width="30" height="30" as="geometry">
            <mxRectangle width="30" height="30" as="alternateBounds" />
          </mxGeometry>
        </mxCell>
        <mxCell id="MQInxoICCboDLCkZ3Esl-95" value="price" style="shape=partialRectangle;connectable=0;fillColor=none;top=0;left=0;bottom=0;right=0;align=left;spacingLeft=6;overflow=hidden;whiteSpace=wrap;html=1;" vertex="1" parent="MQInxoICCboDLCkZ3Esl-93">
          <mxGeometry x="30" width="129.9999999999999" height="30" as="geometry">
            <mxRectangle width="129.9999999999999" height="30" as="alternateBounds" />
          </mxGeometry>
        </mxCell>
        <mxCell id="MQInxoICCboDLCkZ3Esl-97" value="CoverageArea" style="shape=table;startSize=30;container=1;collapsible=1;childLayout=tableLayout;fixedRows=1;rowLines=0;fontStyle=1;align=center;resizeLast=1;html=1;" vertex="1" parent="1">
          <mxGeometry x="1279.9999999999995" y="190" width="159.9999999999999" height="180" as="geometry" />
        </mxCell>
        <mxCell id="MQInxoICCboDLCkZ3Esl-98" value="" style="shape=tableRow;horizontal=0;startSize=0;swimlaneHead=0;swimlaneBody=0;fillColor=none;collapsible=0;dropTarget=0;points=[[0,0.5],[1,0.5]];portConstraint=eastwest;top=0;left=0;right=0;bottom=1;" vertex="1" parent="MQInxoICCboDLCkZ3Esl-97">
          <mxGeometry y="30" width="159.9999999999999" height="30" as="geometry" />
        </mxCell>
        <mxCell id="MQInxoICCboDLCkZ3Esl-99" value="PK" style="shape=partialRectangle;connectable=0;fillColor=none;top=0;left=0;bottom=0;right=0;fontStyle=1;overflow=hidden;whiteSpace=wrap;html=1;" vertex="1" parent="MQInxoICCboDLCkZ3Esl-98">
          <mxGeometry width="30" height="30" as="geometry">
            <mxRectangle width="30" height="30" as="alternateBounds" />
          </mxGeometry>
        </mxCell>
        <mxCell id="MQInxoICCboDLCkZ3Esl-100" value="Coverage_area_id" style="shape=partialRectangle;connectable=0;fillColor=none;top=0;left=0;bottom=0;right=0;align=left;spacingLeft=6;fontStyle=5;overflow=hidden;whiteSpace=wrap;html=1;" vertex="1" parent="MQInxoICCboDLCkZ3Esl-98">
          <mxGeometry x="30" width="129.9999999999999" height="30" as="geometry">
            <mxRectangle width="129.9999999999999" height="30" as="alternateBounds" />
          </mxGeometry>
        </mxCell>
        <mxCell id="MQInxoICCboDLCkZ3Esl-101" value="" style="shape=tableRow;horizontal=0;startSize=0;swimlaneHead=0;swimlaneBody=0;fillColor=none;collapsible=0;dropTarget=0;points=[[0,0.5],[1,0.5]];portConstraint=eastwest;top=0;left=0;right=0;bottom=0;" vertex="1" parent="MQInxoICCboDLCkZ3Esl-97">
          <mxGeometry y="60" width="159.9999999999999" height="30" as="geometry" />
        </mxCell>
        <mxCell id="MQInxoICCboDLCkZ3Esl-102" value="" style="shape=partialRectangle;connectable=0;fillColor=none;top=0;left=0;bottom=0;right=0;editable=1;overflow=hidden;whiteSpace=wrap;html=1;" vertex="1" parent="MQInxoICCboDLCkZ3Esl-101">
          <mxGeometry width="30" height="30" as="geometry">
            <mxRectangle width="30" height="30" as="alternateBounds" />
          </mxGeometry>
        </mxCell>
        <mxCell id="MQInxoICCboDLCkZ3Esl-103" value="name_of_zone" style="shape=partialRectangle;connectable=0;fillColor=none;top=0;left=0;bottom=0;right=0;align=left;spacingLeft=6;overflow=hidden;whiteSpace=wrap;html=1;" vertex="1" parent="MQInxoICCboDLCkZ3Esl-101">
          <mxGeometry x="30" width="129.9999999999999" height="30" as="geometry">
            <mxRectangle width="129.9999999999999" height="30" as="alternateBounds" />
          </mxGeometry>
        </mxCell>
        <mxCell id="MQInxoICCboDLCkZ3Esl-104" value="" style="shape=tableRow;horizontal=0;startSize=0;swimlaneHead=0;swimlaneBody=0;fillColor=none;collapsible=0;dropTarget=0;points=[[0,0.5],[1,0.5]];portConstraint=eastwest;top=0;left=0;right=0;bottom=0;" vertex="1" parent="MQInxoICCboDLCkZ3Esl-97">
          <mxGeometry y="90" width="159.9999999999999" height="30" as="geometry" />
        </mxCell>
        <mxCell id="MQInxoICCboDLCkZ3Esl-105" value="" style="shape=partialRectangle;connectable=0;fillColor=none;top=0;left=0;bottom=0;right=0;editable=1;overflow=hidden;whiteSpace=wrap;html=1;" vertex="1" parent="MQInxoICCboDLCkZ3Esl-104">
          <mxGeometry width="30" height="30" as="geometry">
            <mxRectangle width="30" height="30" as="alternateBounds" />
          </mxGeometry>
        </mxCell>
        <mxCell id="MQInxoICCboDLCkZ3Esl-106" value="description" style="shape=partialRectangle;connectable=0;fillColor=none;top=0;left=0;bottom=0;right=0;align=left;spacingLeft=6;overflow=hidden;whiteSpace=wrap;html=1;" vertex="1" parent="MQInxoICCboDLCkZ3Esl-104">
          <mxGeometry x="30" width="129.9999999999999" height="30" as="geometry">
            <mxRectangle width="129.9999999999999" height="30" as="alternateBounds" />
          </mxGeometry>
        </mxCell>
        <mxCell id="MQInxoICCboDLCkZ3Esl-107" value="" style="shape=tableRow;horizontal=0;startSize=0;swimlaneHead=0;swimlaneBody=0;fillColor=none;collapsible=0;dropTarget=0;points=[[0,0.5],[1,0.5]];portConstraint=eastwest;top=0;left=0;right=0;bottom=0;" vertex="1" parent="MQInxoICCboDLCkZ3Esl-97">
          <mxGeometry y="120" width="159.9999999999999" height="30" as="geometry" />
        </mxCell>
        <mxCell id="MQInxoICCboDLCkZ3Esl-108" value="" style="shape=partialRectangle;connectable=0;fillColor=none;top=0;left=0;bottom=0;right=0;editable=1;overflow=hidden;whiteSpace=wrap;html=1;" vertex="1" parent="MQInxoICCboDLCkZ3Esl-107">
          <mxGeometry width="30" height="30" as="geometry">
            <mxRectangle width="30" height="30" as="alternateBounds" />
          </mxGeometry>
        </mxCell>
        <mxCell id="MQInxoICCboDLCkZ3Esl-109" value="latitude" style="shape=partialRectangle;connectable=0;fillColor=none;top=0;left=0;bottom=0;right=0;align=left;spacingLeft=6;overflow=hidden;whiteSpace=wrap;html=1;" vertex="1" parent="MQInxoICCboDLCkZ3Esl-107">
          <mxGeometry x="30" width="129.9999999999999" height="30" as="geometry">
            <mxRectangle width="129.9999999999999" height="30" as="alternateBounds" />
          </mxGeometry>
        </mxCell>
        <mxCell id="MQInxoICCboDLCkZ3Esl-111" style="shape=tableRow;horizontal=0;startSize=0;swimlaneHead=0;swimlaneBody=0;fillColor=none;collapsible=0;dropTarget=0;points=[[0,0.5],[1,0.5]];portConstraint=eastwest;top=0;left=0;right=0;bottom=0;" vertex="1" parent="MQInxoICCboDLCkZ3Esl-97">
          <mxGeometry y="150" width="159.9999999999999" height="30" as="geometry" />
        </mxCell>
        <mxCell id="MQInxoICCboDLCkZ3Esl-112" style="shape=partialRectangle;connectable=0;fillColor=none;top=0;left=0;bottom=0;right=0;editable=1;overflow=hidden;whiteSpace=wrap;html=1;" vertex="1" parent="MQInxoICCboDLCkZ3Esl-111">
          <mxGeometry width="30" height="30" as="geometry">
            <mxRectangle width="30" height="30" as="alternateBounds" />
          </mxGeometry>
        </mxCell>
        <mxCell id="MQInxoICCboDLCkZ3Esl-113" value="longitude" style="shape=partialRectangle;connectable=0;fillColor=none;top=0;left=0;bottom=0;right=0;align=left;spacingLeft=6;overflow=hidden;whiteSpace=wrap;html=1;" vertex="1" parent="MQInxoICCboDLCkZ3Esl-111">
          <mxGeometry x="30" width="129.9999999999999" height="30" as="geometry">
            <mxRectangle width="129.9999999999999" height="30" as="alternateBounds" />
          </mxGeometry>
        </mxCell>
        <mxCell id="MQInxoICCboDLCkZ3Esl-145" value="" style="edgeStyle=orthogonalEdgeStyle;rounded=0;orthogonalLoop=1;jettySize=auto;html=1;" edge="1" parent="1" source="MQInxoICCboDLCkZ3Esl-114" target="MQInxoICCboDLCkZ3Esl-132">
          <mxGeometry relative="1" as="geometry" />
        </mxCell>
        <mxCell id="MQInxoICCboDLCkZ3Esl-114" value="Partner" style="shape=table;startSize=30;container=1;collapsible=1;childLayout=tableLayout;fixedRows=1;rowLines=0;fontStyle=1;align=center;resizeLast=1;html=1;" vertex="1" parent="1">
          <mxGeometry x="1279.9999999999995" y="570" width="159.9999999999999" height="150" as="geometry" />
        </mxCell>
        <mxCell id="MQInxoICCboDLCkZ3Esl-115" value="" style="shape=tableRow;horizontal=0;startSize=0;swimlaneHead=0;swimlaneBody=0;fillColor=none;collapsible=0;dropTarget=0;points=[[0,0.5],[1,0.5]];portConstraint=eastwest;top=0;left=0;right=0;bottom=1;" vertex="1" parent="MQInxoICCboDLCkZ3Esl-114">
          <mxGeometry y="30" width="159.9999999999999" height="30" as="geometry" />
        </mxCell>
        <mxCell id="MQInxoICCboDLCkZ3Esl-116" value="PK" style="shape=partialRectangle;connectable=0;fillColor=none;top=0;left=0;bottom=0;right=0;fontStyle=1;overflow=hidden;whiteSpace=wrap;html=1;" vertex="1" parent="MQInxoICCboDLCkZ3Esl-115">
          <mxGeometry width="30" height="30" as="geometry">
            <mxRectangle width="30" height="30" as="alternateBounds" />
          </mxGeometry>
        </mxCell>
        <mxCell id="MQInxoICCboDLCkZ3Esl-117" value="Partner_id" style="shape=partialRectangle;connectable=0;fillColor=none;top=0;left=0;bottom=0;right=0;align=left;spacingLeft=6;fontStyle=5;overflow=hidden;whiteSpace=wrap;html=1;" vertex="1" parent="MQInxoICCboDLCkZ3Esl-115">
          <mxGeometry x="30" width="129.9999999999999" height="30" as="geometry">
            <mxRectangle width="129.9999999999999" height="30" as="alternateBounds" />
          </mxGeometry>
        </mxCell>
        <mxCell id="MQInxoICCboDLCkZ3Esl-118" value="" style="shape=tableRow;horizontal=0;startSize=0;swimlaneHead=0;swimlaneBody=0;fillColor=none;collapsible=0;dropTarget=0;points=[[0,0.5],[1,0.5]];portConstraint=eastwest;top=0;left=0;right=0;bottom=0;" vertex="1" parent="MQInxoICCboDLCkZ3Esl-114">
          <mxGeometry y="60" width="159.9999999999999" height="30" as="geometry" />
        </mxCell>
        <mxCell id="MQInxoICCboDLCkZ3Esl-119" value="" style="shape=partialRectangle;connectable=0;fillColor=none;top=0;left=0;bottom=0;right=0;editable=1;overflow=hidden;whiteSpace=wrap;html=1;" vertex="1" parent="MQInxoICCboDLCkZ3Esl-118">
          <mxGeometry width="30" height="30" as="geometry">
            <mxRectangle width="30" height="30" as="alternateBounds" />
          </mxGeometry>
        </mxCell>
        <mxCell id="MQInxoICCboDLCkZ3Esl-120" value="name_of_partner" style="shape=partialRectangle;connectable=0;fillColor=none;top=0;left=0;bottom=0;right=0;align=left;spacingLeft=6;overflow=hidden;whiteSpace=wrap;html=1;" vertex="1" parent="MQInxoICCboDLCkZ3Esl-118">
          <mxGeometry x="30" width="129.9999999999999" height="30" as="geometry">
            <mxRectangle width="129.9999999999999" height="30" as="alternateBounds" />
          </mxGeometry>
        </mxCell>
        <mxCell id="MQInxoICCboDLCkZ3Esl-121" value="" style="shape=tableRow;horizontal=0;startSize=0;swimlaneHead=0;swimlaneBody=0;fillColor=none;collapsible=0;dropTarget=0;points=[[0,0.5],[1,0.5]];portConstraint=eastwest;top=0;left=0;right=0;bottom=0;" vertex="1" parent="MQInxoICCboDLCkZ3Esl-114">
          <mxGeometry y="90" width="159.9999999999999" height="30" as="geometry" />
        </mxCell>
        <mxCell id="MQInxoICCboDLCkZ3Esl-122" value="" style="shape=partialRectangle;connectable=0;fillColor=none;top=0;left=0;bottom=0;right=0;editable=1;overflow=hidden;whiteSpace=wrap;html=1;" vertex="1" parent="MQInxoICCboDLCkZ3Esl-121">
          <mxGeometry width="30" height="30" as="geometry">
            <mxRectangle width="30" height="30" as="alternateBounds" />
          </mxGeometry>
        </mxCell>
        <mxCell id="MQInxoICCboDLCkZ3Esl-123" value="contacts" style="shape=partialRectangle;connectable=0;fillColor=none;top=0;left=0;bottom=0;right=0;align=left;spacingLeft=6;overflow=hidden;whiteSpace=wrap;html=1;" vertex="1" parent="MQInxoICCboDLCkZ3Esl-121">
          <mxGeometry x="30" width="129.9999999999999" height="30" as="geometry">
            <mxRectangle width="129.9999999999999" height="30" as="alternateBounds" />
          </mxGeometry>
        </mxCell>
        <mxCell id="MQInxoICCboDLCkZ3Esl-124" value="" style="shape=tableRow;horizontal=0;startSize=0;swimlaneHead=0;swimlaneBody=0;fillColor=none;collapsible=0;dropTarget=0;points=[[0,0.5],[1,0.5]];portConstraint=eastwest;top=0;left=0;right=0;bottom=0;" vertex="1" parent="MQInxoICCboDLCkZ3Esl-114">
          <mxGeometry y="120" width="159.9999999999999" height="30" as="geometry" />
        </mxCell>
        <mxCell id="MQInxoICCboDLCkZ3Esl-125" value="FK" style="shape=partialRectangle;connectable=0;fillColor=none;top=0;left=0;bottom=0;right=0;editable=1;overflow=hidden;whiteSpace=wrap;html=1;" vertex="1" parent="MQInxoICCboDLCkZ3Esl-124">
          <mxGeometry width="30" height="30" as="geometry">
            <mxRectangle width="30" height="30" as="alternateBounds" />
          </mxGeometry>
        </mxCell>
        <mxCell id="MQInxoICCboDLCkZ3Esl-126" value="services" style="shape=partialRectangle;connectable=0;fillColor=none;top=0;left=0;bottom=0;right=0;align=left;spacingLeft=6;overflow=hidden;whiteSpace=wrap;html=1;" vertex="1" parent="MQInxoICCboDLCkZ3Esl-124">
          <mxGeometry x="30" width="129.9999999999999" height="30" as="geometry">
            <mxRectangle width="129.9999999999999" height="30" as="alternateBounds" />
          </mxGeometry>
        </mxCell>
        <mxCell id="MQInxoICCboDLCkZ3Esl-132" value="SalesPromotion" style="shape=table;startSize=30;container=1;collapsible=1;childLayout=tableLayout;fixedRows=1;rowLines=0;fontStyle=1;align=center;resizeLast=1;html=1;" vertex="1" parent="1">
          <mxGeometry x="1279.9999999999995" y="380" width="159.9999999999999" height="150" as="geometry" />
        </mxCell>
        <mxCell id="MQInxoICCboDLCkZ3Esl-133" value="" style="shape=tableRow;horizontal=0;startSize=0;swimlaneHead=0;swimlaneBody=0;fillColor=none;collapsible=0;dropTarget=0;points=[[0,0.5],[1,0.5]];portConstraint=eastwest;top=0;left=0;right=0;bottom=1;" vertex="1" parent="MQInxoICCboDLCkZ3Esl-132">
          <mxGeometry y="30" width="159.9999999999999" height="30" as="geometry" />
        </mxCell>
        <mxCell id="MQInxoICCboDLCkZ3Esl-134" value="PK" style="shape=partialRectangle;connectable=0;fillColor=none;top=0;left=0;bottom=0;right=0;fontStyle=1;overflow=hidden;whiteSpace=wrap;html=1;" vertex="1" parent="MQInxoICCboDLCkZ3Esl-133">
          <mxGeometry width="30" height="30" as="geometry">
            <mxRectangle width="30" height="30" as="alternateBounds" />
          </mxGeometry>
        </mxCell>
        <mxCell id="MQInxoICCboDLCkZ3Esl-135" value="Sales_promotion_id" style="shape=partialRectangle;connectable=0;fillColor=none;top=0;left=0;bottom=0;right=0;align=left;spacingLeft=6;fontStyle=5;overflow=hidden;whiteSpace=wrap;html=1;" vertex="1" parent="MQInxoICCboDLCkZ3Esl-133">
          <mxGeometry x="30" width="129.9999999999999" height="30" as="geometry">
            <mxRectangle width="129.9999999999999" height="30" as="alternateBounds" />
          </mxGeometry>
        </mxCell>
        <mxCell id="MQInxoICCboDLCkZ3Esl-136" value="" style="shape=tableRow;horizontal=0;startSize=0;swimlaneHead=0;swimlaneBody=0;fillColor=none;collapsible=0;dropTarget=0;points=[[0,0.5],[1,0.5]];portConstraint=eastwest;top=0;left=0;right=0;bottom=0;" vertex="1" parent="MQInxoICCboDLCkZ3Esl-132">
          <mxGeometry y="60" width="159.9999999999999" height="30" as="geometry" />
        </mxCell>
        <mxCell id="MQInxoICCboDLCkZ3Esl-137" value="" style="shape=partialRectangle;connectable=0;fillColor=none;top=0;left=0;bottom=0;right=0;editable=1;overflow=hidden;whiteSpace=wrap;html=1;" vertex="1" parent="MQInxoICCboDLCkZ3Esl-136">
          <mxGeometry width="30" height="30" as="geometry">
            <mxRectangle width="30" height="30" as="alternateBounds" />
          </mxGeometry>
        </mxCell>
        <mxCell id="MQInxoICCboDLCkZ3Esl-138" value="name_of_partner" style="shape=partialRectangle;connectable=0;fillColor=none;top=0;left=0;bottom=0;right=0;align=left;spacingLeft=6;overflow=hidden;whiteSpace=wrap;html=1;" vertex="1" parent="MQInxoICCboDLCkZ3Esl-136">
          <mxGeometry x="30" width="129.9999999999999" height="30" as="geometry">
            <mxRectangle width="129.9999999999999" height="30" as="alternateBounds" />
          </mxGeometry>
        </mxCell>
        <mxCell id="MQInxoICCboDLCkZ3Esl-139" value="" style="shape=tableRow;horizontal=0;startSize=0;swimlaneHead=0;swimlaneBody=0;fillColor=none;collapsible=0;dropTarget=0;points=[[0,0.5],[1,0.5]];portConstraint=eastwest;top=0;left=0;right=0;bottom=0;" vertex="1" parent="MQInxoICCboDLCkZ3Esl-132">
          <mxGeometry y="90" width="159.9999999999999" height="30" as="geometry" />
        </mxCell>
        <mxCell id="MQInxoICCboDLCkZ3Esl-140" value="" style="shape=partialRectangle;connectable=0;fillColor=none;top=0;left=0;bottom=0;right=0;editable=1;overflow=hidden;whiteSpace=wrap;html=1;" vertex="1" parent="MQInxoICCboDLCkZ3Esl-139">
          <mxGeometry width="30" height="30" as="geometry">
            <mxRectangle width="30" height="30" as="alternateBounds" />
          </mxGeometry>
        </mxCell>
        <mxCell id="MQInxoICCboDLCkZ3Esl-141" value="contacts" style="shape=partialRectangle;connectable=0;fillColor=none;top=0;left=0;bottom=0;right=0;align=left;spacingLeft=6;overflow=hidden;whiteSpace=wrap;html=1;" vertex="1" parent="MQInxoICCboDLCkZ3Esl-139">
          <mxGeometry x="30" width="129.9999999999999" height="30" as="geometry">
            <mxRectangle width="129.9999999999999" height="30" as="alternateBounds" />
          </mxGeometry>
        </mxCell>
        <mxCell id="MQInxoICCboDLCkZ3Esl-142" value="" style="shape=tableRow;horizontal=0;startSize=0;swimlaneHead=0;swimlaneBody=0;fillColor=none;collapsible=0;dropTarget=0;points=[[0,0.5],[1,0.5]];portConstraint=eastwest;top=0;left=0;right=0;bottom=0;" vertex="1" parent="MQInxoICCboDLCkZ3Esl-132">
          <mxGeometry y="120" width="159.9999999999999" height="30" as="geometry" />
        </mxCell>
        <mxCell id="MQInxoICCboDLCkZ3Esl-143" value="FK" style="shape=partialRectangle;connectable=0;fillColor=none;top=0;left=0;bottom=0;right=0;editable=1;overflow=hidden;whiteSpace=wrap;html=1;" vertex="1" parent="MQInxoICCboDLCkZ3Esl-142">
          <mxGeometry width="30" height="30" as="geometry">
            <mxRectangle width="30" height="30" as="alternateBounds" />
          </mxGeometry>
        </mxCell>
        <mxCell id="MQInxoICCboDLCkZ3Esl-144" value="services" style="shape=partialRectangle;connectable=0;fillColor=none;top=0;left=0;bottom=0;right=0;align=left;spacingLeft=6;overflow=hidden;whiteSpace=wrap;html=1;" vertex="1" parent="MQInxoICCboDLCkZ3Esl-142">
          <mxGeometry x="30" width="129.9999999999999" height="30" as="geometry">
            <mxRectangle width="129.9999999999999" height="30" as="alternateBounds" />
          </mxGeometry>
        </mxCell>
        <mxCell id="MQInxoICCboDLCkZ3Esl-146" value="SIM" style="shape=table;startSize=30;container=1;collapsible=1;childLayout=tableLayout;fixedRows=1;rowLines=0;fontStyle=1;align=center;resizeLast=1;html=1;" vertex="1" parent="1">
          <mxGeometry x="800" y="40" width="159.9999999999999" height="120" as="geometry" />
        </mxCell>
        <mxCell id="MQInxoICCboDLCkZ3Esl-147" value="" style="shape=tableRow;horizontal=0;startSize=0;swimlaneHead=0;swimlaneBody=0;fillColor=none;collapsible=0;dropTarget=0;points=[[0,0.5],[1,0.5]];portConstraint=eastwest;top=0;left=0;right=0;bottom=1;" vertex="1" parent="MQInxoICCboDLCkZ3Esl-146">
          <mxGeometry y="30" width="159.9999999999999" height="30" as="geometry" />
        </mxCell>
        <mxCell id="MQInxoICCboDLCkZ3Esl-148" value="PK" style="shape=partialRectangle;connectable=0;fillColor=none;top=0;left=0;bottom=0;right=0;fontStyle=1;overflow=hidden;whiteSpace=wrap;html=1;" vertex="1" parent="MQInxoICCboDLCkZ3Esl-147">
          <mxGeometry width="30" height="30" as="geometry">
            <mxRectangle width="30" height="30" as="alternateBounds" />
          </mxGeometry>
        </mxCell>
        <mxCell id="MQInxoICCboDLCkZ3Esl-149" value="sim_id" style="shape=partialRectangle;connectable=0;fillColor=none;top=0;left=0;bottom=0;right=0;align=left;spacingLeft=6;fontStyle=5;overflow=hidden;whiteSpace=wrap;html=1;" vertex="1" parent="MQInxoICCboDLCkZ3Esl-147">
          <mxGeometry x="30" width="129.9999999999999" height="30" as="geometry">
            <mxRectangle width="129.9999999999999" height="30" as="alternateBounds" />
          </mxGeometry>
        </mxCell>
        <mxCell id="MQInxoICCboDLCkZ3Esl-150" value="" style="shape=tableRow;horizontal=0;startSize=0;swimlaneHead=0;swimlaneBody=0;fillColor=none;collapsible=0;dropTarget=0;points=[[0,0.5],[1,0.5]];portConstraint=eastwest;top=0;left=0;right=0;bottom=0;" vertex="1" parent="MQInxoICCboDLCkZ3Esl-146">
          <mxGeometry y="60" width="159.9999999999999" height="30" as="geometry" />
        </mxCell>
        <mxCell id="MQInxoICCboDLCkZ3Esl-151" value="" style="shape=partialRectangle;connectable=0;fillColor=none;top=0;left=0;bottom=0;right=0;editable=1;overflow=hidden;whiteSpace=wrap;html=1;" vertex="1" parent="MQInxoICCboDLCkZ3Esl-150">
          <mxGeometry width="30" height="30" as="geometry">
            <mxRectangle width="30" height="30" as="alternateBounds" />
          </mxGeometry>
        </mxCell>
        <mxCell id="MQInxoICCboDLCkZ3Esl-152" value="phone_number CHAR(15) UNIQUE" style="shape=partialRectangle;connectable=0;fillColor=none;top=0;left=0;bottom=0;right=0;align=left;spacingLeft=6;overflow=hidden;whiteSpace=wrap;html=1;" vertex="1" parent="MQInxoICCboDLCkZ3Esl-150">
          <mxGeometry x="30" width="129.9999999999999" height="30" as="geometry">
            <mxRectangle width="129.9999999999999" height="30" as="alternateBounds" />
          </mxGeometry>
        </mxCell>
        <mxCell id="MQInxoICCboDLCkZ3Esl-153" value="" style="shape=tableRow;horizontal=0;startSize=0;swimlaneHead=0;swimlaneBody=0;fillColor=none;collapsible=0;dropTarget=0;points=[[0,0.5],[1,0.5]];portConstraint=eastwest;top=0;left=0;right=0;bottom=0;" vertex="1" parent="MQInxoICCboDLCkZ3Esl-146">
          <mxGeometry y="90" width="159.9999999999999" height="30" as="geometry" />
        </mxCell>
        <mxCell id="MQInxoICCboDLCkZ3Esl-154" value="" style="shape=partialRectangle;connectable=0;fillColor=none;top=0;left=0;bottom=0;right=0;editable=1;overflow=hidden;whiteSpace=wrap;html=1;" vertex="1" parent="MQInxoICCboDLCkZ3Esl-153">
          <mxGeometry width="30" height="30" as="geometry">
            <mxRectangle width="30" height="30" as="alternateBounds" />
          </mxGeometry>
        </mxCell>
        <mxCell id="MQInxoICCboDLCkZ3Esl-155" value="imei" style="shape=partialRectangle;connectable=0;fillColor=none;top=0;left=0;bottom=0;right=0;align=left;spacingLeft=6;overflow=hidden;whiteSpace=wrap;html=1;" vertex="1" parent="MQInxoICCboDLCkZ3Esl-153">
          <mxGeometry x="30" width="129.9999999999999" height="30" as="geometry">
            <mxRectangle width="129.9999999999999" height="30" as="alternateBounds" />
          </mxGeometry>
        </mxCell>
        <mxCell id="MQInxoICCboDLCkZ3Esl-159" style="edgeStyle=orthogonalEdgeStyle;rounded=1;orthogonalLoop=1;jettySize=auto;html=1;startArrow=ERone;startFill=0;endArrow=ERone;endFill=0;" edge="1" parent="1" source="MQInxoICCboDLCkZ3Esl-160" target="MQInxoICCboDLCkZ3Esl-147">
          <mxGeometry relative="1" as="geometry">
            <Array as="points">
              <mxPoint x="980" y="355" />
              <mxPoint x="980" y="85" />
            </Array>
          </mxGeometry>
        </mxCell>
        <mxCell id="MQInxoICCboDLCkZ3Esl-169" style="edgeStyle=orthogonalEdgeStyle;rounded=1;orthogonalLoop=1;jettySize=auto;html=1;startArrow=ERone;startFill=0;endArrow=ERmany;endFill=0;" edge="1" parent="1" source="MQInxoICCboDLCkZ3Esl-166" target="MQInxoICCboDLCkZ3Esl-43">
          <mxGeometry relative="1" as="geometry">
            <Array as="points">
              <mxPoint x="780" y="385" />
              <mxPoint x="780" y="455" />
            </Array>
          </mxGeometry>
        </mxCell>
      </root>
    </mxGraphModel>
  </diagram>
</mxfile>
